<svg width="28" height="21" viewBox="0 0 28 21" fill="none" xmlns="http://www.w3.org/2000/svg">
<rect width="28" height="21" fill="#E5E5E5"/>
<rect x="0.922682" y="15.185" width="19" height="6" transform="rotate(-50.9148 0.922682 15.185)" fill="#FFBB00"/>
<rect x="6.84088" y="17.4154" width="19" height="6" transform="rotate(-50.9148 6.84088 17.4154)" fill="#A66F00"/>
<path d="M10.2354 21C9.96344 21 9.70744 20.928 9.46744 20.784C9.22744 20.64 9.10744 20.432 9.10744 20.16V4.296C9.10744 4.024 9.22744 3.816 9.46744 3.672C9.70744 3.528 9.96344 3.456 10.2354 3.456H18.7794C19.0834 3.456 19.2994 3.576 19.4274 3.816C19.5554 4.056 19.6194 4.304 19.6194 4.56C19.6194 4.864 19.5474 5.136 19.4034 5.376C19.2594 5.6 19.0514 5.712 18.7794 5.712H11.6514V11.208H15.3474C15.6194 11.208 15.8274 11.312 15.9714 11.52C16.1154 11.728 16.1874 11.968 16.1874 12.24C16.1874 12.464 16.1234 12.688 15.9954 12.912C15.8674 13.12 15.6514 13.224 15.3474 13.224H11.6514V18.744H18.7794C19.0514 18.744 19.2594 18.856 19.4034 19.08C19.5474 19.304 19.6194 19.576 19.6194 19.896C19.6194 20.152 19.5554 20.4 19.4274 20.64C19.2994 20.88 19.0834 21 18.7794 21H10.2354ZM21.1348 16.296C20.8948 16.296 20.6948 16.2 20.5348 16.008C20.3908 15.8 20.3188 15.544 20.3188 15.24C20.3188 14.936 20.3908 14.68 20.5348 14.472C20.6948 14.264 20.8948 14.16 21.1348 14.16H27.3748C27.5988 14.16 27.7988 14.264 27.9748 14.472C28.1508 14.68 28.2388 14.936 28.2388 15.24C28.2388 15.544 28.1508 15.8 27.9748 16.008C27.7988 16.2 27.5988 16.296 27.3748 16.296H21.1348ZM31.8683 21C31.5323 21 31.2603 20.92 31.0523 20.76C30.8443 20.6 30.7402 20.408 30.7402 20.184V4.296C30.7402 4.024 30.8602 3.816 31.1003 3.672C31.3403 3.528 31.5963 3.456 31.8683 3.456H36.2363C37.1003 3.456 37.9003 3.568 38.6363 3.792C39.3723 4.016 39.9643 4.432 40.4123 5.04C40.8603 5.632 41.0843 6.488 41.0843 7.608C41.0843 8.616 40.9003 9.448 40.5323 10.104C40.1803 10.76 39.6843 11.224 39.0443 11.496C39.5403 11.688 39.9723 11.944 40.3403 12.264C40.7083 12.568 40.9963 12.984 41.2043 13.512C41.4123 14.024 41.5163 14.688 41.5163 15.504V15.96C41.5163 17.192 41.3083 18.176 40.8923 18.912C40.4763 19.648 39.9083 20.184 39.1883 20.52C38.4683 20.84 37.6523 21 36.7403 21H31.8683ZM33.2603 18.744H36.2603C37.1243 18.744 37.7883 18.512 38.2523 18.048C38.7323 17.568 38.9723 16.808 38.9723 15.768V15.384C38.9723 14.328 38.7323 13.584 38.2523 13.152C37.7883 12.72 37.1243 12.504 36.2603 12.504H33.2603V18.744ZM33.2603 10.488H36.1403C36.9563 10.488 37.5563 10.28 37.9403 9.864C38.3403 9.448 38.5403 8.832 38.5403 8.016C38.5403 7.472 38.4363 7.032 38.2283 6.696C38.0363 6.36 37.7563 6.112 37.3883 5.952C37.0203 5.792 36.5883 5.712 36.0923 5.712H33.2603V10.488ZM48.8779 21.192C47.7899 21.192 46.8299 20.992 45.9979 20.592C45.1659 20.192 44.5099 19.64 44.0299 18.936C43.5499 18.216 43.3099 17.376 43.3099 16.416V14.136C43.3099 13.288 43.5339 12.512 43.9819 11.808C44.4459 11.104 45.0539 10.544 45.8059 10.128C46.5579 9.696 47.3899 9.48 48.3019 9.48C49.1659 9.48 49.9579 9.672 50.6779 10.056C51.3979 10.424 51.9739 10.944 52.4059 11.616C52.8539 12.288 53.0779 13.056 53.0779 13.92C53.0779 14.592 52.9739 15.072 52.7659 15.36C52.5579 15.648 52.2859 15.824 51.9499 15.888C51.6139 15.952 51.2619 15.984 50.8939 15.984H45.8299V16.536C45.8299 17.336 46.1179 17.976 46.6939 18.456C47.2859 18.92 48.0379 19.152 48.9499 19.152C49.5099 19.152 49.9659 19.072 50.3179 18.912C50.6699 18.752 50.9659 18.6 51.2059 18.456C51.4459 18.312 51.6699 18.24 51.8779 18.24C52.0859 18.24 52.2619 18.304 52.4059 18.432C52.5499 18.56 52.6619 18.712 52.7419 18.888C52.8219 19.064 52.8619 19.224 52.8619 19.368C52.8619 19.608 52.6939 19.872 52.3579 20.16C52.0379 20.448 51.5819 20.696 50.9899 20.904C50.3979 21.096 49.6939 21.192 48.8779 21.192ZM45.8299 14.424H49.8139C50.1659 14.424 50.3979 14.376 50.5099 14.28C50.6379 14.184 50.7019 13.992 50.7019 13.704C50.7019 13.288 50.5979 12.904 50.3899 12.552C50.1819 12.184 49.8939 11.904 49.5259 11.712C49.1579 11.504 48.7419 11.4 48.2779 11.4C47.8299 11.4 47.4219 11.496 47.0539 11.688C46.6859 11.88 46.3899 12.144 46.1659 12.48C45.9419 12.816 45.8299 13.208 45.8299 13.656V14.424ZM56.3805 21C56.0125 21 55.7085 20.912 55.4685 20.736C55.2445 20.56 55.1325 20.368 55.1325 20.16V10.44C55.1325 10.2 55.2445 10.008 55.4685 9.864C55.7085 9.704 56.0125 9.624 56.3805 9.624C56.6845 9.624 56.9485 9.704 57.1725 9.864C57.3965 10.008 57.5085 10.2 57.5085 10.44V11.304C57.7485 10.84 58.1405 10.424 58.6845 10.056C59.2445 9.672 59.9245 9.48 60.7245 9.48C61.4765 9.48 62.1645 9.696 62.7885 10.128C63.4285 10.544 63.9405 11.112 64.3245 11.832C64.7085 12.536 64.9005 13.328 64.9005 14.208V20.16C64.9005 20.432 64.7645 20.64 64.4925 20.784C64.2365 20.928 63.9485 21 63.6285 21C63.3405 21 63.0605 20.928 62.7885 20.784C62.5165 20.64 62.3805 20.432 62.3805 20.16V14.208C62.3805 13.792 62.2685 13.392 62.0445 13.008C61.8365 12.624 61.5485 12.312 61.1805 12.072C60.8125 11.832 60.4045 11.712 59.9565 11.712C59.5725 11.712 59.2045 11.816 58.8525 12.024C58.5005 12.216 58.2125 12.496 57.9885 12.864C57.7645 13.232 57.6525 13.68 57.6525 14.208V20.16C57.6525 20.368 57.5245 20.56 57.2685 20.736C57.0285 20.912 56.7325 21 56.3805 21ZM72.5498 21.192C71.4618 21.192 70.5018 20.992 69.6698 20.592C68.8378 20.192 68.1818 19.64 67.7018 18.936C67.2218 18.216 66.9818 17.376 66.9818 16.416V14.136C66.9818 13.288 67.2058 12.512 67.6538 11.808C68.1178 11.104 68.7258 10.544 69.4778 10.128C70.2298 9.696 71.0618 9.48 71.9738 9.48C72.8378 9.48 73.6298 9.672 74.3498 10.056C75.0698 10.424 75.6458 10.944 76.0778 11.616C76.5258 12.288 76.7498 13.056 76.7498 13.92C76.7498 14.592 76.6458 15.072 76.4378 15.36C76.2298 15.648 75.9578 15.824 75.6218 15.888C75.2858 15.952 74.9338 15.984 74.5658 15.984H69.5018V16.536C69.5018 17.336 69.7898 17.976 70.3658 18.456C70.9578 18.92 71.7098 19.152 72.6218 19.152C73.1818 19.152 73.6378 19.072 73.9898 18.912C74.3418 18.752 74.6378 18.6 74.8778 18.456C75.1178 18.312 75.3418 18.24 75.5498 18.24C75.7578 18.24 75.9338 18.304 76.0778 18.432C76.2218 18.56 76.3338 18.712 76.4138 18.888C76.4938 19.064 76.5338 19.224 76.5338 19.368C76.5338 19.608 76.3658 19.872 76.0298 20.16C75.7098 20.448 75.2538 20.696 74.6618 20.904C74.0698 21.096 73.3658 21.192 72.5498 21.192ZM69.5018 14.424H73.4858C73.8378 14.424 74.0698 14.376 74.1818 14.28C74.3098 14.184 74.3738 13.992 74.3738 13.704C74.3738 13.288 74.2698 12.904 74.0618 12.552C73.8538 12.184 73.5658 11.904 73.1978 11.712C72.8298 11.504 72.4138 11.4 71.9498 11.4C71.5018 11.4 71.0938 11.496 70.7258 11.688C70.3578 11.88 70.0618 12.144 69.8378 12.48C69.6138 12.816 69.5018 13.208 69.5018 13.656V14.424ZM80.0524 21C79.7004 21 79.4044 20.928 79.1644 20.784C78.9404 20.624 78.8284 20.424 78.8284 20.184V7.872C78.8284 6.992 79.0444 6.168 79.4764 5.4C79.9244 4.632 80.5644 4.016 81.3964 3.552C82.2284 3.088 83.2284 2.856 84.3964 2.856C85.0364 2.856 85.6604 2.928 86.2684 3.072C86.8764 3.2 87.3724 3.392 87.7564 3.648C88.1404 3.888 88.3324 4.168 88.3324 4.488C88.3324 4.6 88.3004 4.776 88.2364 5.016C88.1724 5.24 88.0684 5.448 87.9244 5.64C87.7964 5.832 87.6284 5.928 87.4204 5.928C87.2444 5.928 87.0444 5.856 86.8204 5.712C86.6124 5.552 86.3244 5.4 85.9564 5.256C85.5884 5.096 85.0764 5.016 84.4204 5.016C83.9084 5.016 83.4524 5.088 83.0524 5.232C82.6684 5.376 82.3484 5.576 82.0924 5.832C81.8364 6.072 81.6444 6.36 81.5164 6.696C81.4044 7.016 81.3484 7.368 81.3484 7.752V9.624H84.0124C84.2524 9.624 84.4284 9.72 84.5404 9.912C84.6684 10.104 84.7324 10.32 84.7324 10.56C84.7324 10.8 84.6684 11.016 84.5404 11.208C84.4284 11.4 84.2524 11.496 84.0124 11.496H81.3484V20.184C81.3484 20.424 81.2204 20.624 80.9644 20.784C80.7084 20.928 80.4044 21 80.0524 21ZM87.9484 21C87.5964 21 87.3004 20.912 87.0604 20.736C86.8204 20.56 86.7004 20.368 86.7004 20.16V10.44C86.7004 10.2 86.8204 10.008 87.0604 9.864C87.3004 9.704 87.5964 9.624 87.9484 9.624C88.3004 9.624 88.5964 9.704 88.8364 9.864C89.0924 10.008 89.2204 10.2 89.2204 10.44V20.16C89.2204 20.368 89.0924 20.56 88.8364 20.736C88.5964 20.912 88.3004 21 87.9484 21ZM95.9876 21C94.6276 21 93.5876 20.704 92.8676 20.112C92.1476 19.504 91.7876 18.552 91.7876 17.256V5.232C91.7876 4.992 91.9156 4.8 92.1716 4.656C92.4436 4.496 92.7316 4.416 93.0356 4.416C93.3396 4.416 93.6276 4.496 93.8996 4.656C94.1716 4.8 94.3076 4.992 94.3076 5.232V9.624H97.2356C97.4596 9.624 97.6276 9.72 97.7396 9.912C97.8676 10.104 97.9316 10.32 97.9316 10.56C97.9316 10.8 97.8676 11.016 97.7396 11.208C97.6276 11.4 97.4596 11.496 97.2356 11.496H94.3076V17.256C94.3076 17.832 94.4276 18.24 94.6676 18.48C94.9236 18.72 95.3636 18.84 95.9876 18.84H96.8036C97.1716 18.84 97.4436 18.952 97.6196 19.176C97.8116 19.384 97.9076 19.632 97.9076 19.92C97.9076 20.192 97.8116 20.44 97.6196 20.664C97.4436 20.888 97.1716 21 96.8036 21H95.9876ZM103.144 21.192C102.36 21.192 101.656 21.096 101.032 20.904C100.408 20.712 99.9118 20.472 99.5438 20.184C99.1918 19.88 99.0158 19.576 99.0158 19.272C99.0158 19.128 99.0478 18.968 99.1118 18.792C99.1918 18.616 99.2958 18.464 99.4238 18.336C99.5678 18.208 99.7198 18.144 99.8798 18.144C100.088 18.144 100.304 18.24 100.528 18.432C100.768 18.608 101.08 18.792 101.464 18.984C101.848 19.16 102.384 19.248 103.072 19.248C103.872 19.248 104.408 19.112 104.68 18.84C104.968 18.568 105.112 18.272 105.112 17.952C105.112 17.536 104.968 17.216 104.68 16.992C104.408 16.752 104.048 16.56 103.6 16.416C103.168 16.272 102.704 16.136 102.208 16.008C101.712 15.864 101.24 15.68 100.792 15.456C100.36 15.232 99.9998 14.92 99.7118 14.52C99.4398 14.12 99.3038 13.592 99.3038 12.936C99.3038 12.392 99.4398 11.856 99.7118 11.328C99.9838 10.784 100.416 10.344 101.008 10.008C101.616 9.656 102.424 9.48 103.432 9.48C104.04 9.48 104.616 9.544 105.16 9.672C105.704 9.8 106.152 9.976 106.504 10.2C106.856 10.408 107.032 10.64 107.032 10.896C107.032 11.008 106.992 11.168 106.912 11.376C106.832 11.568 106.72 11.744 106.576 11.904C106.448 12.048 106.28 12.12 106.072 12.12C105.912 12.12 105.712 12.064 105.472 11.952C105.232 11.824 104.952 11.704 104.632 11.592C104.312 11.48 103.92 11.424 103.456 11.424C102.992 11.424 102.616 11.504 102.328 11.664C102.056 11.808 101.856 11.984 101.728 12.192C101.6 12.4 101.536 12.608 101.536 12.816C101.536 13.168 101.672 13.44 101.944 13.632C102.216 13.824 102.576 13.984 103.024 14.112C103.472 14.24 103.944 14.376 104.44 14.52C104.936 14.648 105.4 14.84 105.832 15.096C106.28 15.352 106.64 15.696 106.912 16.128C107.2 16.56 107.344 17.136 107.344 17.856C107.344 18.864 106.976 19.672 106.24 20.28C105.52 20.888 104.488 21.192 103.144 21.192Z" fill="white"/>
<path d="M110.302 21.144C109.886 21.144 109.542 21 109.27 20.712C108.998 20.424 108.862 20.088 108.862 19.704C108.862 19.304 108.998 18.968 109.27 18.696C109.542 18.408 109.886 18.264 110.302 18.264C110.686 18.264 111.014 18.408 111.286 18.696C111.574 18.968 111.718 19.304 111.718 19.704C111.718 20.088 111.574 20.424 111.286 20.712C111.014 21 110.686 21.144 110.302 21.144Z" fill="#FFBB00"/>
</svg>
